HIERARCHY
ROOT Hips
{
  OFFSET 1.44925e-005 102.336 -0.101585
  CHANNELS 6 Xposition Yposition Zposition Zrotation Xrotation Yrotation
  JOINT LeftUpLeg
  {
    OFFSET 8.9458 -8.66707 0.101652
    CHANNELS 3 Zrotation Xrotation Yrotation
    JOINT LeftLeg
    {
      OFFSET 0 -44.4227 1.3727
      CHANNELS 3 Zrotation Xrotation Yrotation
      JOINT LeftFoot
      {
        OFFSET -0.253549 -42.0924 -1.46059
        CHANNELS 3 Zrotation Xrotation Yrotation
        JOINT LeftToes
        {
          OFFSET -0.04 -4.41509 8.4991
          CHANNELS 3 Zrotation Xrotation Yrotation
          End Site
          {
            OFFSET 0.08 -0.047448 9.77979
          }
        }
      }
    }
  }
  JOINT Spine
  {
    OFFSET 0 11.8905 0
    CHANNELS 3 Zrotation Xrotation Yrotation
    JOINT Spine1
    {
      OFFSET 0 25.6574 0.127663
      CHANNELS 3 Zrotation Xrotation Yrotation
      JOINT RightShoulder
      {
        OFFSET -8.99 -0.362252 -0.22
        CHANNELS 3 Zrotation Xrotation Yrotation
        JOINT RightArm
        {
          OFFSET -10.2827 -0.00338 0.322123
          CHANNELS 3 Zrotation Xrotation Yrotation
          JOINT RightForeArm
          {
            OFFSET -26.364 0.099144 -1.42434
            CHANNELS 3 Zrotation Xrotation Yrotation
            JOINT RightHand
            {
              OFFSET -22.0324 0.085362 1.02216
              CHANNELS 3 Zrotation Xrotation Yrotation
              End Site
              {
                OFFSET -13.3284 -0.6 1.50291
              }
            }
          }
        }
      }
      JOINT LeftShoulder1
      {
        OFFSET 8.99 -0.362252 -0.22
        CHANNELS 3 Zrotation Xrotation Yrotation
        JOINT LeftArm
        {
          OFFSET 10.2827 -0.00337999 0.322123
          CHANNELS 3 Zrotation Xrotation Yrotation
          JOINT LeftForeArm
          {
            OFFSET 26.2597 0.099144 -1.42434
            CHANNELS 3 Zrotation Xrotation Yrotation
            JOINT LeftHand
            {
              OFFSET 22.0902 0.085362 1.02216
              CHANNELS 3 Zrotation Xrotation Yrotation
              End Site
              {
                OFFSET 13.419 -0.6 1.50291
              }
            }
          }
        }
      }
      JOINT Head
      {
        OFFSET 0 8.73416 0.011341
        CHANNELS 3 Zrotation Xrotation Yrotation
        End Site
        {
          OFFSET -0.29 12.7742 2.51395
        }
      }
    }
  }
  JOINT RightUpLeg
  {
    OFFSET -8.9458 -8.66707 0.101652
    CHANNELS 3 Zrotation Xrotation Yrotation
    JOINT RightLeg
    {
      OFFSET 0 -44.4227 1.3727
      CHANNELS 3 Zrotation Xrotation Yrotation
      JOINT RightFoot
      {
        OFFSET 0.253549 -42.0924 -1.46059
        CHANNELS 3 Zrotation Xrotation Yrotation
        JOINT RightToes
        {
          OFFSET 0.04 -4.41509 8.4991
          CHANNELS 3 Zrotation Xrotation Yrotation
          End Site
          {
            OFFSET -0.08 -0.137448 9.77979
          }
        }
      }
    }
  }
}
MOTION
Frames:	10
Frame Time:	0.0333333
191.381 102.979 2.55847 -4.27307 -0.0537663 -92.8007 0.978686 4.62026 4.04976 -0.0276959 8.72104 22.4353 -4.28856 -11.5539 -0.0925592 -1.36625e-009 8.75222e-006 -1.47856e-008 1.57376 7.38886 0.401673 -1.91384 0.426552 0.924043 35.6534 1.7004 0.0483405 43.967 -19.4102 8.62846 8.52648 38.2694 7.43525 -8.90384 9.55023 -0.48448 -42.0799 3.29314 -3.25873 -26.8576 -10.0649 2.43768 -2.12371 34.7638 -17.5143 5.82328 9.61819 -0.917488 -2.09133 -6.94279 -4.16068 -1.13933 4.35627 -4.21305 -0.967276 10.0646 -6.06891 4.04903 -13.5352 0.00530627 0.0462048 0.000530889 0.662642 
191.388 102.979 2.55402 -4.28072 -0.0563398 -92.825 0.976904 4.66082 4.05127 -0.0387731 8.65526 22.4612 -4.29013 -11.5414 -0.0925551 -1.36625e-009 8.75222e-006 -1.47856e-008 1.5408 7.45023 0.410826 -1.86978 0.381348 0.924038 35.6172 1.69971 0.0483405 43.9856 -19.4481 8.58884 8.48571 38.4692 7.44705 -8.93392 9.54229 -0.386951 -42.1435 3.29312 -3.26413 -26.7878 -10.0398 2.4829 -2.02496 34.806 -17.6113 5.82328 9.61819 -0.917488 -2.09208 -6.90548 -4.16217 -1.14535 4.37195 -4.22408 -0.960905 10.0366 -6.04031 4.02353 -13.5205 0.00530594 0.0462048 0.000530889 0.662642 
191.401 102.979 2.54501 -4.28082 -0.0512017 -92.882 0.983963 4.67558 4.06237 -0.0479017 8.62495 22.5135 -4.28832 -11.5388 -0.0925542 -1.36625e-009 8.75222e-006 -1.47856e-008 1.56894 7.51586 0.406657 -1.91476 0.326392 0.922717 35.5716 1.69682 0.0483404 44.0401 -19.4457 8.53558 8.44351 38.7335 7.4627 -8.9596 9.52094 -0.0927829 -42.1505 3.29208 -3.26988 -26.7684 -10.0337 2.56127 -1.93587 34.7728 -17.7125 5.82328 9.61819 -0.917488 -1.98912 -6.86048 -4.02951 -1.13874 4.36999 -4.20551 -0.970587 10.0165 -5.97954 4.03973 -13.5532 0.00530667 0.0462048 0.000530889 0.662642 
191.417 102.979 2.53587 -4.28039 -0.0379167 -92.9298 1.00606 4.66833 4.09145 -0.0596874 8.63025 22.5436 -4.26364 -11.5389 -0.0925542 -1.36625e-009 8.75222e-006 -1.47856e-008 1.66158 7.56315 0.371906 -2.03341 0.295347 0.910966 35.5246 1.69324 0.0483403 44.1226 -19.3801 8.50587 8.425 38.8428 7.48562 -9.02963 9.50046 0.156194 -42.0806 3.29001 -3.27484 -26.8578 -9.91652 2.64114 -1.92027 34.4213 -17.813 5.82328 9.61819 -0.917488 -1.9177 -6.82205 -3.81703 -1.11017 4.35825 -4.15867 -0.997532 10.0087 -5.97211 4.06812 -13.5533 0.00530668 0.0462048 0.000530889 0.662642 
191.435 102.979 2.52907 -4.27998 -0.0297915 -92.94 1.02794 4.65571 4.11243 -0.0744542 8.63468 22.525 -4.25476 -11.5373 -0.0925537 -1.36625e-009 8.75222e-006 -1.47856e-008 1.67461 7.52968 0.345626 -2.00489 0.398354 0.880293 35.4203 1.68984 0.0483403 44.2471 -19.4292 8.56355 8.43691 38.8414 7.45059 -9.08061 9.50766 0.0183681 -42.1247 3.29803 -3.28469 -26.8945 -9.68995 2.63343 -1.92202 33.9448 -17.933 5.82328 9.61819 -0.917488 -2.00981 -6.84744 -3.67249 -1.08694 4.34736 -4.13819 -1.00625 9.99874 -6.00904 3.98745 -13.4871 0.0053052 0.0462048 0.000530889 0.662642 
191.454 102.979 2.5249 -4.2602 -0.0434494 -92.9505 1.01834 4.61333 4.09884 -0.0782224 8.657 22.5335 -4.271 -11.5368 -0.0925536 -1.36625e-009 8.75222e-006 -1.47856e-008 1.58848 7.33413 0.35201 -1.85162 0.704215 0.857614 35.2903 1.6877 0.0500489 44.4007 -19.6293 8.74121 8.52529 38.7224 7.29213 -9.07613 9.5432 -0.488163 -42.3053 3.3178 -3.29808 -26.7958 -9.58842 2.51202 -1.89205 33.7654 -18.0139 5.82328 9.61819 -0.917488 -2.10767 -6.979 -3.60461 -1.10289 4.30069 -4.15115 -0.997507 10.0232 -5.97922 3.92397 -13.4961 0.0053054 0.0462048 0.000530889 0.662642 
191.467 102.979 2.52381 -4.22585 -0.0726677 -92.9913 0.98119 4.56416 4.069 -0.0743898 8.67047 22.6172 -4.24929 -11.5316 -0.0925518 -1.36625e-009 8.75222e-006 -1.47856e-008 1.52623 7.09905 0.360395 -1.77995 0.998236 0.851231 35.2244 1.68995 0.0609796 44.4987 -19.7445 8.90638 8.6498 38.4804 7.13164 -9.0947 9.56688 -0.839845 -42.4429 3.33192 -3.30612 -26.6793 -9.64812 2.41222 -1.84551 33.8347 -18.0449 5.82328 9.61819 -0.917488 -2.04876 -7.06481 -3.55543 -1.14054 4.21568 -4.15313 -1.00653 10.0946 -5.9048 4.0357 -13.591 0.00530752 0.0462048 0.000530889 0.662642 
191.474 102.979 2.52403 -4.21694 -0.0828017 -93.0093 0.968065 4.57134 4.06393 -0.0785231 8.62593 22.6611 -4.19671 -11.5074 -0.0925439 -1.36625e-009 8.75222e-006 -1.47856e-008 1.58813 7.01557 0.317296 -1.8712 1.05348 0.827776 35.2724 1.70103 0.0835317 44.4752 -19.7082 8.94136 8.67414 38.5397 7.10198 -9.05521 9.54904 -0.556787 -42.4204 3.32987 -3.30652 -26.6709 -9.66326 2.44355 -1.81398 33.77 -18.0917 5.82328 9.61819 -0.917488 -1.93633 -6.94252 -3.53153 -1.14922 4.18028 -4.15009 -1.016 10.1259 -5.92031 4.08725 -13.5697 0.00199654 0.0462048 0.000530889 0.662642 
191.479 102.978 2.52531 -4.24706 -0.0626661 -92.9694 0.992184 4.60889 4.07776 -0.0781468 8.60025 22.5914 -4.21468 -11.505 -0.0925431 -1.36625e-009 8.75222e-006 -1.47856e-008 1.67331 7.01359 0.255979 -1.93984 1.0372 0.783841 35.3799 1.71201 0.100488 44.3568 -19.7016 8.92596 8.55964 39.1207 7.16476 -8.77246 9.51704 0.093913 -42.3937 3.32632 -3.30861 -26.6752 -9.58186 2.47436 -1.83579 33.5457 -18.1249 5.82328 9.61819 -0.917488 -1.93321 -6.78651 -3.5433 -1.13214 4.23914 -4.18375 -0.98377 10.0723 -5.9743 3.89633 -13.4555 -0.00998305 0.0462048 0.000530889 0.662642 
191.485 102.974 2.52742 -4.28455 -0.0527366 -92.9484 0.992301 4.61215 4.07059 -0.0548404 8.66756 22.5574 -4.28245 -11.536 -0.0925533 -1.36625e-009 8.75222e-006 -1.47856e-008 1.61171 6.87398 0.264294 -1.81689 1.27525 0.767285 35.407 1.71558 0.106692 44.2776 -19.7207 9.00603 8.47414 39.4386 7.21923 -8.49609 9.51565 0.315033 -42.5423 3.33792 -3.31112 -26.5522 -9.57864 2.34152 -1.91603 33.4478 -18.0632 5.82328 9.61819 -0.917488 -1.96725 -6.87734 -3.50075 -1.14105 4.29946 -4.21668 -0.956308 10.0449 -5.90752 3.85346 -13.5185 -0.0103375 0.0462048 0.000530889 0.662642 
